<mxfile host="app.diagrams.net" agent="Mozilla/5.0 (Windows NT 10.0; Win64; x64) AppleWebKit/537.36 (KHTML, like Gecko) Chrome/136.0.0.0 Safari/537.36" version="27.0.2">
  <diagram name="Page-1" id="5F5FR9ulsPSOxEnYNR3h">
    <mxGraphModel dx="2276" dy="897" grid="1" gridSize="10" guides="1" tooltips="1" connect="1" arrows="1" fold="1" page="1" pageScale="1" pageWidth="850" pageHeight="1100" math="0" shadow="0">
      <root>
        <mxCell id="0" />
        <mxCell id="1" parent="0" />
        <mxCell id="x2fK7w8gmVhvOhYyi4h5-2" value="&lt;font style=&quot;font-size: 14px;&quot;&gt;Απλός Αναγνώστης&lt;/font&gt;" style="shape=umlActor;verticalLabelPosition=bottom;verticalAlign=top;html=1;outlineConnect=0;" parent="1" vertex="1">
          <mxGeometry x="-40" y="330" width="40" height="70" as="geometry" />
        </mxCell>
        <mxCell id="x2fK7w8gmVhvOhYyi4h5-3" value="" style="shape=umlBoundary;whiteSpace=wrap;html=1;" parent="1" vertex="1">
          <mxGeometry x="160" y="240" width="100" height="80" as="geometry" />
        </mxCell>
        <mxCell id="x2fK7w8gmVhvOhYyi4h5-4" value="&lt;font style=&quot;font-size: 14px;&quot;&gt;Homepage&lt;/font&gt;" style="text;html=1;align=center;verticalAlign=middle;resizable=0;points=[];autosize=1;strokeColor=none;fillColor=none;" parent="1" vertex="1">
          <mxGeometry x="170" y="210" width="90" height="30" as="geometry" />
        </mxCell>
        <mxCell id="x2fK7w8gmVhvOhYyi4h5-5" value="" style="endArrow=none;html=1;rounded=0;entryX=-0.003;entryY=0.588;entryDx=0;entryDy=0;entryPerimeter=0;" parent="1" source="x2fK7w8gmVhvOhYyi4h5-2" target="x2fK7w8gmVhvOhYyi4h5-3" edge="1">
          <mxGeometry width="50" height="50" relative="1" as="geometry">
            <mxPoint x="100" y="420" as="sourcePoint" />
            <mxPoint x="150" y="370" as="targetPoint" />
          </mxGeometry>
        </mxCell>
        <mxCell id="x2fK7w8gmVhvOhYyi4h5-6" value="&lt;font style=&quot;font-size: 14px;&quot;&gt;Επιλογή παλιών&amp;nbsp;&lt;/font&gt;&lt;div&gt;&lt;font style=&quot;font-size: 14px;&quot;&gt;ανταλλαγών&lt;/font&gt;&lt;/div&gt;" style="text;html=1;align=center;verticalAlign=middle;resizable=0;points=[];autosize=1;strokeColor=none;fillColor=none;rotation=-25;" parent="1" vertex="1">
          <mxGeometry y="270" width="130" height="50" as="geometry" />
        </mxCell>
        <mxCell id="x2fK7w8gmVhvOhYyi4h5-7" value="&lt;span style=&quot;font-size: 14px;&quot;&gt;Εμφάνιση παλιών ανταλλαγών με άλλους χρήστες&lt;/span&gt;" style="ellipse;shape=umlControl;whiteSpace=wrap;html=1;" parent="1" vertex="1">
          <mxGeometry x="360" y="290" width="145" height="110" as="geometry" />
        </mxCell>
        <mxCell id="x2fK7w8gmVhvOhYyi4h5-8" value="" style="endArrow=none;html=1;rounded=0;entryX=1.023;entryY=0.604;entryDx=0;entryDy=0;entryPerimeter=0;" parent="1" source="x2fK7w8gmVhvOhYyi4h5-7" target="x2fK7w8gmVhvOhYyi4h5-3" edge="1">
          <mxGeometry width="50" height="50" relative="1" as="geometry">
            <mxPoint x="100" y="420" as="sourcePoint" />
            <mxPoint x="150" y="370" as="targetPoint" />
          </mxGeometry>
        </mxCell>
        <mxCell id="x2fK7w8gmVhvOhYyi4h5-9" value="" style="shape=umlBoundary;whiteSpace=wrap;html=1;" parent="1" vertex="1">
          <mxGeometry x="180" y="440" width="100" height="80" as="geometry" />
        </mxCell>
        <mxCell id="x2fK7w8gmVhvOhYyi4h5-10" value="&lt;font style=&quot;font-size: 14px;&quot;&gt;Completed Transactions&lt;/font&gt;" style="text;html=1;align=center;verticalAlign=middle;resizable=0;points=[];autosize=1;strokeColor=none;fillColor=none;" parent="1" vertex="1">
          <mxGeometry x="130" y="410" width="170" height="30" as="geometry" />
        </mxCell>
        <mxCell id="x2fK7w8gmVhvOhYyi4h5-11" value="" style="endArrow=none;html=1;rounded=0;" parent="1" source="x2fK7w8gmVhvOhYyi4h5-9" target="x2fK7w8gmVhvOhYyi4h5-7" edge="1">
          <mxGeometry width="50" height="50" relative="1" as="geometry">
            <mxPoint x="325" y="315" as="sourcePoint" />
            <mxPoint x="272" y="298" as="targetPoint" />
          </mxGeometry>
        </mxCell>
        <mxCell id="x2fK7w8gmVhvOhYyi4h5-12" value="" style="endArrow=none;html=1;rounded=0;entryX=-0.03;entryY=0.504;entryDx=0;entryDy=0;entryPerimeter=0;" parent="1" source="x2fK7w8gmVhvOhYyi4h5-2" target="x2fK7w8gmVhvOhYyi4h5-9" edge="1">
          <mxGeometry width="50" height="50" relative="1" as="geometry">
            <mxPoint x="10" y="366" as="sourcePoint" />
            <mxPoint x="170" y="297" as="targetPoint" />
          </mxGeometry>
        </mxCell>
        <mxCell id="x2fK7w8gmVhvOhYyi4h5-13" value="&lt;font style=&quot;font-size: 14px;&quot;&gt;Επιλογή χρήστη&amp;nbsp;&lt;/font&gt;&lt;div&gt;&lt;font style=&quot;font-size: 14px;&quot;&gt;για κριτική&lt;/font&gt;&lt;/div&gt;" style="text;html=1;align=center;verticalAlign=middle;resizable=0;points=[];autosize=1;strokeColor=none;fillColor=none;rotation=30;" parent="1" vertex="1">
          <mxGeometry x="15" y="370" width="130" height="50" as="geometry" />
        </mxCell>
        <mxCell id="x2fK7w8gmVhvOhYyi4h5-14" value="&lt;span style=&quot;font-size: 14px;&quot;&gt;Εμφάνιση φόρμας για κριτική επιλεγμένου χρήστη&lt;/span&gt;" style="ellipse;shape=umlControl;whiteSpace=wrap;html=1;" parent="1" vertex="1">
          <mxGeometry x="352.5" y="430" width="160" height="105" as="geometry" />
        </mxCell>
        <mxCell id="x2fK7w8gmVhvOhYyi4h5-15" value="" style="endArrow=none;html=1;rounded=0;entryX=0.02;entryY=0.568;entryDx=0;entryDy=0;entryPerimeter=0;" parent="1" source="x2fK7w8gmVhvOhYyi4h5-9" target="x2fK7w8gmVhvOhYyi4h5-14" edge="1">
          <mxGeometry width="50" height="50" relative="1" as="geometry">
            <mxPoint x="100" y="440" as="sourcePoint" />
            <mxPoint x="150" y="390" as="targetPoint" />
          </mxGeometry>
        </mxCell>
        <mxCell id="x2fK7w8gmVhvOhYyi4h5-16" value="" style="shape=umlBoundary;whiteSpace=wrap;html=1;" parent="1" vertex="1">
          <mxGeometry x="110" y="590" width="100" height="80" as="geometry" />
        </mxCell>
        <mxCell id="x2fK7w8gmVhvOhYyi4h5-17" value="&lt;font style=&quot;font-size: 14px;&quot;&gt;Rate User&lt;/font&gt;" style="text;html=1;align=center;verticalAlign=middle;resizable=0;points=[];autosize=1;strokeColor=none;fillColor=none;" parent="1" vertex="1">
          <mxGeometry x="130" y="560" width="90" height="30" as="geometry" />
        </mxCell>
        <mxCell id="x2fK7w8gmVhvOhYyi4h5-18" value="" style="endArrow=none;html=1;rounded=0;exitX=1.03;exitY=0.446;exitDx=0;exitDy=0;exitPerimeter=0;" parent="1" source="x2fK7w8gmVhvOhYyi4h5-16" target="x2fK7w8gmVhvOhYyi4h5-14" edge="1">
          <mxGeometry width="50" height="50" relative="1" as="geometry">
            <mxPoint x="290" y="494" as="sourcePoint" />
            <mxPoint x="366" y="500" as="targetPoint" />
          </mxGeometry>
        </mxCell>
        <mxCell id="x2fK7w8gmVhvOhYyi4h5-19" value="" style="endArrow=none;html=1;rounded=0;" parent="1" source="x2fK7w8gmVhvOhYyi4h5-2" target="x2fK7w8gmVhvOhYyi4h5-16" edge="1">
          <mxGeometry width="50" height="50" relative="1" as="geometry">
            <mxPoint x="10" y="387" as="sourcePoint" />
            <mxPoint x="187" y="490" as="targetPoint" />
          </mxGeometry>
        </mxCell>
        <mxCell id="x2fK7w8gmVhvOhYyi4h5-20" value="&lt;font style=&quot;font-size: 14px;&quot;&gt;Συμπλήρωση&amp;nbsp;&lt;/font&gt;&lt;div&gt;&lt;font style=&quot;font-size: 14px;&quot;&gt;βαθμολογίας χρήστη&lt;/font&gt;&lt;/div&gt;" style="text;html=1;align=center;verticalAlign=middle;resizable=0;points=[];autosize=1;strokeColor=none;fillColor=none;rotation=55;" parent="1" vertex="1">
          <mxGeometry x="25" y="470" width="150" height="50" as="geometry" />
        </mxCell>
        <mxCell id="x2fK7w8gmVhvOhYyi4h5-21" value="&lt;span style=&quot;font-size: 14px;&quot;&gt;Επεξεργασία βαθμολογίας&lt;/span&gt;" style="ellipse;shape=umlControl;whiteSpace=wrap;html=1;" parent="1" vertex="1">
          <mxGeometry x="290" y="600" width="100" height="85" as="geometry" />
        </mxCell>
        <mxCell id="x2fK7w8gmVhvOhYyi4h5-22" value="" style="endArrow=none;html=1;rounded=0;exitX=0.997;exitY=0.696;exitDx=0;exitDy=0;exitPerimeter=0;" parent="1" source="x2fK7w8gmVhvOhYyi4h5-16" target="x2fK7w8gmVhvOhYyi4h5-21" edge="1">
          <mxGeometry width="50" height="50" relative="1" as="geometry">
            <mxPoint x="290" y="494" as="sourcePoint" />
            <mxPoint x="366" y="500" as="targetPoint" />
          </mxGeometry>
        </mxCell>
        <mxCell id="x2fK7w8gmVhvOhYyi4h5-23" value="&lt;span style=&quot;font-size: 14px;&quot;&gt;Αποθήκευση βαθμολογίας&lt;/span&gt;" style="ellipse;shape=umlControl;whiteSpace=wrap;html=1;" parent="1" vertex="1">
          <mxGeometry x="540" y="575" width="100" height="85" as="geometry" />
        </mxCell>
        <mxCell id="x2fK7w8gmVhvOhYyi4h5-24" value="" style="endArrow=none;html=1;rounded=0;" parent="1" source="x2fK7w8gmVhvOhYyi4h5-21" target="x2fK7w8gmVhvOhYyi4h5-23" edge="1">
          <mxGeometry width="50" height="50" relative="1" as="geometry">
            <mxPoint x="220" y="656" as="sourcePoint" />
            <mxPoint x="300" y="654" as="targetPoint" />
          </mxGeometry>
        </mxCell>
        <mxCell id="x2fK7w8gmVhvOhYyi4h5-25" value="" style="ellipse;shape=umlEntity;whiteSpace=wrap;html=1;" parent="1" vertex="1">
          <mxGeometry x="630" y="325" width="80" height="80" as="geometry" />
        </mxCell>
        <mxCell id="x2fK7w8gmVhvOhYyi4h5-26" value="&lt;font style=&quot;font-size: 14px;&quot;&gt;Βάση Δεδομένων&lt;/font&gt;" style="text;html=1;align=center;verticalAlign=middle;resizable=0;points=[];autosize=1;strokeColor=none;fillColor=none;" parent="1" vertex="1">
          <mxGeometry x="600" y="300" width="130" height="30" as="geometry" />
        </mxCell>
        <mxCell id="x2fK7w8gmVhvOhYyi4h5-27" value="" style="endArrow=none;html=1;rounded=0;entryX=0.292;entryY=1.021;entryDx=0;entryDy=0;entryPerimeter=0;" parent="1" source="x2fK7w8gmVhvOhYyi4h5-23" target="x2fK7w8gmVhvOhYyi4h5-25" edge="1">
          <mxGeometry width="50" height="50" relative="1" as="geometry">
            <mxPoint x="400" y="653" as="sourcePoint" />
            <mxPoint x="440" y="653" as="targetPoint" />
          </mxGeometry>
        </mxCell>
        <mxCell id="x2fK7w8gmVhvOhYyi4h5-28" value="&lt;span style=&quot;font-size: 14px;&quot;&gt;Ενημέρωση με email τον άλλον χρήστη για την κριτική&lt;/span&gt;" style="ellipse;shape=umlControl;whiteSpace=wrap;html=1;" parent="1" vertex="1">
          <mxGeometry x="-100" y="750" width="130" height="120" as="geometry" />
        </mxCell>
        <mxCell id="x2fK7w8gmVhvOhYyi4h5-30" value="&lt;span style=&quot;font-size: 14px;&quot;&gt;Εμφάνιση παραθύρου επιβεβαίωσης&lt;/span&gt;" style="ellipse;shape=umlControl;whiteSpace=wrap;html=1;" parent="1" vertex="1">
          <mxGeometry x="290" y="710" width="110" height="100" as="geometry" />
        </mxCell>
        <mxCell id="x2fK7w8gmVhvOhYyi4h5-32" value="" style="shape=umlBoundary;whiteSpace=wrap;html=1;" parent="1" vertex="1">
          <mxGeometry x="130" y="718" width="100" height="80" as="geometry" />
        </mxCell>
        <mxCell id="x2fK7w8gmVhvOhYyi4h5-33" value="" style="endArrow=none;html=1;rounded=0;exitX=0.99;exitY=0.546;exitDx=0;exitDy=0;exitPerimeter=0;" parent="1" source="x2fK7w8gmVhvOhYyi4h5-32" target="x2fK7w8gmVhvOhYyi4h5-30" edge="1">
          <mxGeometry width="50" height="50" relative="1" as="geometry">
            <mxPoint x="220" y="656" as="sourcePoint" />
            <mxPoint x="300" y="654" as="targetPoint" />
          </mxGeometry>
        </mxCell>
        <mxCell id="x2fK7w8gmVhvOhYyi4h5-34" value="&lt;font style=&quot;font-size: 14px;&quot;&gt;Completed&lt;/font&gt;" style="text;html=1;align=center;verticalAlign=middle;resizable=0;points=[];autosize=1;strokeColor=none;fillColor=none;" parent="1" vertex="1">
          <mxGeometry x="145" y="688" width="90" height="30" as="geometry" />
        </mxCell>
        <mxCell id="x2fK7w8gmVhvOhYyi4h5-35" value="&lt;font style=&quot;font-size: 14px;&quot;&gt;Έγκυρη βαθμολογία&lt;/font&gt;" style="text;html=1;align=center;verticalAlign=middle;resizable=0;points=[];autosize=1;strokeColor=none;fillColor=none;rotation=0;" parent="1" vertex="1">
          <mxGeometry x="385" y="600" width="150" height="30" as="geometry" />
        </mxCell>
        <mxCell id="x2fK7w8gmVhvOhYyi4h5-36" value="" style="shape=umlBoundary;whiteSpace=wrap;html=1;strokeColor=#FF3333;" parent="1" vertex="1">
          <mxGeometry x="-310" y="340" width="100" height="80" as="geometry" />
        </mxCell>
        <mxCell id="x2fK7w8gmVhvOhYyi4h5-37" value="&lt;font style=&quot;font-size: 14px;&quot;&gt;Completed Transactions&lt;/font&gt;" style="text;html=1;align=center;verticalAlign=middle;resizable=0;points=[];autosize=1;strokeColor=none;fillColor=none;fontColor=#FF3333;" parent="1" vertex="1">
          <mxGeometry x="-345" y="310" width="170" height="30" as="geometry" />
        </mxCell>
        <mxCell id="x2fK7w8gmVhvOhYyi4h5-38" value="" style="endArrow=none;html=1;rounded=0;exitX=0.997;exitY=0.513;exitDx=0;exitDy=0;exitPerimeter=0;strokeColor=#FF3333;" parent="1" source="x2fK7w8gmVhvOhYyi4h5-36" target="x2fK7w8gmVhvOhYyi4h5-2" edge="1">
          <mxGeometry width="50" height="50" relative="1" as="geometry">
            <mxPoint x="-20" y="500" as="sourcePoint" />
            <mxPoint x="30" y="450" as="targetPoint" />
          </mxGeometry>
        </mxCell>
        <mxCell id="x2fK7w8gmVhvOhYyi4h5-39" value="&lt;font style=&quot;font-size: 13px; color: rgb(255, 51, 51);&quot;&gt;Επιλογή ανταλλαγής που&amp;nbsp;&lt;/font&gt;&lt;div&gt;&lt;font style=&quot;font-size: 13px; color: rgb(255, 51, 51);&quot;&gt;έχει ξαναβαθμολογήσει&lt;/font&gt;&lt;/div&gt;" style="text;html=1;align=center;verticalAlign=middle;resizable=0;points=[];autosize=1;strokeColor=none;fillColor=none;" parent="1" vertex="1">
          <mxGeometry x="-215" y="331" width="170" height="40" as="geometry" />
        </mxCell>
        <mxCell id="x2fK7w8gmVhvOhYyi4h5-40" value="" style="endArrow=none;html=1;rounded=0;entryX=-0.017;entryY=0.513;entryDx=0;entryDy=0;entryPerimeter=0;" parent="1" source="x2fK7w8gmVhvOhYyi4h5-2" target="x2fK7w8gmVhvOhYyi4h5-32" edge="1">
          <mxGeometry width="50" height="50" relative="1" as="geometry">
            <mxPoint x="10" y="404" as="sourcePoint" />
            <mxPoint x="80" y="750" as="targetPoint" />
          </mxGeometry>
        </mxCell>
        <mxCell id="x2fK7w8gmVhvOhYyi4h5-41" value="&lt;span style=&quot;font-size: 14px;&quot;&gt;Εμφάνιση παραθύρου αποτυχίας&lt;/span&gt;" style="ellipse;shape=umlControl;whiteSpace=wrap;html=1;strokeColor=#FF3333;fontColor=#FF3333;" parent="1" vertex="1">
          <mxGeometry x="-400" y="467.5" width="100" height="100" as="geometry" />
        </mxCell>
        <mxCell id="x2fK7w8gmVhvOhYyi4h5-42" value="" style="endArrow=none;html=1;rounded=0;exitX=0.05;exitY=0.746;exitDx=0;exitDy=0;exitPerimeter=0;strokeColor=#FF3333;" parent="1" source="x2fK7w8gmVhvOhYyi4h5-36" target="x2fK7w8gmVhvOhYyi4h5-41" edge="1">
          <mxGeometry width="50" height="50" relative="1" as="geometry">
            <mxPoint x="376" y="333" as="sourcePoint" />
            <mxPoint x="272" y="298" as="targetPoint" />
          </mxGeometry>
        </mxCell>
        <mxCell id="x2fK7w8gmVhvOhYyi4h5-43" value="" style="shape=umlBoundary;whiteSpace=wrap;html=1;strokeColor=#FF3333;" parent="1" vertex="1">
          <mxGeometry x="-320" y="610" width="100" height="80" as="geometry" />
        </mxCell>
        <mxCell id="x2fK7w8gmVhvOhYyi4h5-44" value="&lt;font style=&quot;color: rgb(255, 51, 51);&quot;&gt;Denied&lt;/font&gt;" style="text;html=1;align=center;verticalAlign=middle;resizable=0;points=[];autosize=1;strokeColor=none;fillColor=none;fontSize=14;" parent="1" vertex="1">
          <mxGeometry x="-295" y="688" width="70" height="30" as="geometry" />
        </mxCell>
        <mxCell id="x2fK7w8gmVhvOhYyi4h5-45" value="" style="endArrow=none;html=1;rounded=0;strokeColor=#FF3333;entryX=0.61;entryY=1.01;entryDx=0;entryDy=0;entryPerimeter=0;" parent="1" source="x2fK7w8gmVhvOhYyi4h5-43" target="x2fK7w8gmVhvOhYyi4h5-41" edge="1">
          <mxGeometry width="50" height="50" relative="1" as="geometry">
            <mxPoint x="-295" y="410" as="sourcePoint" />
            <mxPoint x="-355" y="439" as="targetPoint" />
          </mxGeometry>
        </mxCell>
        <mxCell id="x2fK7w8gmVhvOhYyi4h5-52" value="" style="shape=umlBoundary;whiteSpace=wrap;html=1;strokeColor=#FF3333;" parent="1" vertex="1">
          <mxGeometry x="50" y="810" width="100" height="80" as="geometry" />
        </mxCell>
        <mxCell id="x2fK7w8gmVhvOhYyi4h5-53" value="" style="endArrow=none;html=1;rounded=0;strokeColor=#FF3333;" parent="1" source="x2fK7w8gmVhvOhYyi4h5-52" target="x2fK7w8gmVhvOhYyi4h5-63" edge="1">
          <mxGeometry width="50" height="50" relative="1" as="geometry">
            <mxPoint x="-384" y="560" as="sourcePoint" />
            <mxPoint x="-60" y="650" as="targetPoint" />
          </mxGeometry>
        </mxCell>
        <mxCell id="x2fK7w8gmVhvOhYyi4h5-54" value="Denied Rating" style="text;html=1;align=center;verticalAlign=middle;resizable=0;points=[];autosize=1;strokeColor=none;fillColor=none;fontSize=14;fontColor=#FF3333;" parent="1" vertex="1">
          <mxGeometry x="45" y="780" width="110" height="30" as="geometry" />
        </mxCell>
        <mxCell id="x2fK7w8gmVhvOhYyi4h5-56" value="" style="shape=umlBoundary;whiteSpace=wrap;html=1;strokeColor=#FF3333;" parent="1" vertex="1">
          <mxGeometry x="-275" y="480" width="100" height="80" as="geometry" />
        </mxCell>
        <mxCell id="x2fK7w8gmVhvOhYyi4h5-57" value="&lt;font style=&quot;font-size: 14px;&quot;&gt;Completed Transactions&lt;/font&gt;" style="text;html=1;align=center;verticalAlign=middle;resizable=0;points=[];autosize=1;strokeColor=none;fillColor=none;fontColor=#FF3333;" parent="1" vertex="1">
          <mxGeometry x="-300" y="560" width="170" height="30" as="geometry" />
        </mxCell>
        <mxCell id="x2fK7w8gmVhvOhYyi4h5-58" value="" style="endArrow=none;html=1;rounded=0;strokeColor=#FF3333;" parent="1" source="x2fK7w8gmVhvOhYyi4h5-56" target="x2fK7w8gmVhvOhYyi4h5-2" edge="1">
          <mxGeometry width="50" height="50" relative="1" as="geometry">
            <mxPoint x="-200" y="391" as="sourcePoint" />
            <mxPoint x="-30" y="377" as="targetPoint" />
          </mxGeometry>
        </mxCell>
        <mxCell id="x2fK7w8gmVhvOhYyi4h5-59" value="Επιλογή&amp;nbsp;&lt;div&gt;μη διαθέσιμου χρήστη&lt;/div&gt;" style="text;html=1;align=center;verticalAlign=middle;resizable=0;points=[];autosize=1;strokeColor=none;fillColor=none;fontSize=13;fontColor=#FF3333;rotation=-32;" parent="1" vertex="1">
          <mxGeometry x="-220" y="410" width="150" height="40" as="geometry" />
        </mxCell>
        <mxCell id="x2fK7w8gmVhvOhYyi4h5-60" value="&lt;span style=&quot;font-size: 14px;&quot;&gt;Εμφάνιση παραθύρου αποτυχίας&lt;/span&gt;" style="ellipse;shape=umlControl;whiteSpace=wrap;html=1;strokeColor=#FF3333;fontColor=#FF3333;" parent="1" vertex="1">
          <mxGeometry x="-100" y="475" width="100" height="100" as="geometry" />
        </mxCell>
        <mxCell id="x2fK7w8gmVhvOhYyi4h5-61" value="" style="endArrow=none;html=1;rounded=0;exitX=1.028;exitY=0.6;exitDx=0;exitDy=0;exitPerimeter=0;strokeColor=#FF3333;entryX=-0.012;entryY=0.66;entryDx=0;entryDy=0;entryPerimeter=0;" parent="1" source="x2fK7w8gmVhvOhYyi4h5-56" target="x2fK7w8gmVhvOhYyi4h5-60" edge="1">
          <mxGeometry width="50" height="50" relative="1" as="geometry">
            <mxPoint x="-200" y="391" as="sourcePoint" />
            <mxPoint x="-30" y="377" as="targetPoint" />
          </mxGeometry>
        </mxCell>
        <mxCell id="x2fK7w8gmVhvOhYyi4h5-62" value="" style="shape=umlBoundary;whiteSpace=wrap;html=1;strokeColor=#FF3333;" parent="1" vertex="1">
          <mxGeometry x="-140" y="605" width="100" height="80" as="geometry" />
        </mxCell>
        <mxCell id="x2fK7w8gmVhvOhYyi4h5-63" value="&lt;span style=&quot;font-size: 14px;&quot;&gt;Εμφάνιση παραθύρου αποτυχίας&lt;/span&gt;" style="ellipse;shape=umlControl;whiteSpace=wrap;html=1;strokeColor=#FF3333;fontColor=#FF3333;" parent="1" vertex="1">
          <mxGeometry x="415" y="780" width="100" height="100" as="geometry" />
        </mxCell>
        <mxCell id="x2fK7w8gmVhvOhYyi4h5-64" value="" style="endArrow=none;html=1;rounded=0;strokeColor=#FF3333;" parent="1" source="x2fK7w8gmVhvOhYyi4h5-21" target="x2fK7w8gmVhvOhYyi4h5-63" edge="1">
          <mxGeometry width="50" height="50" relative="1" as="geometry">
            <mxPoint x="160" y="857" as="sourcePoint" />
            <mxPoint x="425" y="843" as="targetPoint" />
          </mxGeometry>
        </mxCell>
        <mxCell id="x2fK7w8gmVhvOhYyi4h5-65" value="Λανθασμένη&amp;nbsp;&lt;div&gt;βαθμολογία&lt;/div&gt;" style="text;html=1;align=center;verticalAlign=middle;resizable=0;points=[];autosize=1;strokeColor=none;fillColor=none;fontColor=#FF3333;fontSize=14;rotation=60;" parent="1" vertex="1">
          <mxGeometry x="360" y="685" width="110" height="50" as="geometry" />
        </mxCell>
        <mxCell id="x2fK7w8gmVhvOhYyi4h5-66" value="User Not Found" style="text;html=1;align=center;verticalAlign=middle;resizable=0;points=[];autosize=1;strokeColor=none;fillColor=none;fontColor=#FF3333;" parent="1" vertex="1">
          <mxGeometry x="-135" y="688" width="110" height="30" as="geometry" />
        </mxCell>
        <mxCell id="x2fK7w8gmVhvOhYyi4h5-67" value="" style="endArrow=none;html=1;rounded=0;exitX=0.42;exitY=0.976;exitDx=0;exitDy=0;exitPerimeter=0;strokeColor=#FF3333;entryX=0.565;entryY=0.011;entryDx=0;entryDy=0;entryPerimeter=0;" parent="1" source="x2fK7w8gmVhvOhYyi4h5-60" target="x2fK7w8gmVhvOhYyi4h5-62" edge="1">
          <mxGeometry width="50" height="50" relative="1" as="geometry">
            <mxPoint x="-162" y="538" as="sourcePoint" />
            <mxPoint x="-91" y="551" as="targetPoint" />
          </mxGeometry>
        </mxCell>
        <mxCell id="EmqQ4aB4G5ILEooHiqsv-1" value="" style="endArrow=none;html=1;rounded=0;exitX=0;exitY=0.5;exitDx=0;exitDy=0;" parent="1" source="x2fK7w8gmVhvOhYyi4h5-25" target="x2fK7w8gmVhvOhYyi4h5-7" edge="1">
          <mxGeometry width="50" height="50" relative="1" as="geometry">
            <mxPoint x="376" y="333" as="sourcePoint" />
            <mxPoint x="272" y="298" as="targetPoint" />
          </mxGeometry>
        </mxCell>
        <mxCell id="EmqQ4aB4G5ILEooHiqsv-2" value="" style="endArrow=none;html=1;rounded=0;entryX=0.48;entryY=1;entryDx=0;entryDy=0;entryPerimeter=0;exitX=1;exitY=0.61;exitDx=0;exitDy=0;exitPerimeter=0;" parent="1" source="x2fK7w8gmVhvOhYyi4h5-30" target="x2fK7w8gmVhvOhYyi4h5-23" edge="1">
          <mxGeometry width="50" height="50" relative="1" as="geometry">
            <mxPoint x="612" y="586" as="sourcePoint" />
            <mxPoint x="663" y="417" as="targetPoint" />
          </mxGeometry>
        </mxCell>
        <mxCell id="EmqQ4aB4G5ILEooHiqsv-3" value="" style="endArrow=none;html=1;rounded=0;entryX=-0.03;entryY=0.513;entryDx=0;entryDy=0;entryPerimeter=0;" parent="1" source="x2fK7w8gmVhvOhYyi4h5-28" target="x2fK7w8gmVhvOhYyi4h5-32" edge="1">
          <mxGeometry width="50" height="50" relative="1" as="geometry">
            <mxPoint x="622" y="596" as="sourcePoint" />
            <mxPoint x="673" y="427" as="targetPoint" />
          </mxGeometry>
        </mxCell>
        <mxCell id="87D6NXcuZ2_Ky-bmKsoV-1" value="&lt;span style=&quot;font-size: 14px;&quot;&gt;Προσθήκη Πόντων&lt;/span&gt;" style="ellipse;shape=umlControl;whiteSpace=wrap;html=1;fontColor=#00CC00;strokeColor=#00CC00;" vertex="1" parent="1">
          <mxGeometry x="-290" y="760" width="100" height="100" as="geometry" />
        </mxCell>
        <mxCell id="87D6NXcuZ2_Ky-bmKsoV-2" value="" style="endArrow=none;html=1;rounded=0;strokeColor=#00CC00;" edge="1" parent="1" source="87D6NXcuZ2_Ky-bmKsoV-1" target="x2fK7w8gmVhvOhYyi4h5-28">
          <mxGeometry width="50" height="50" relative="1" as="geometry">
            <mxPoint x="-161" y="820" as="sourcePoint" />
            <mxPoint x="-135" y="977" as="targetPoint" />
          </mxGeometry>
        </mxCell>
      </root>
    </mxGraphModel>
  </diagram>
</mxfile>
